<?xml version="1.0" encoding="iso-8859-1"?>
<!-- Generator: Adobe Illustrator 19.0.0, SVG Export Plug-In . SVG Version: 6.00 Build 0)  -->
<svg version="1.1" id="Capa_1" xmlns="http://www.w3.org/2000/svg" xmlns:xlink="http://www.w3.org/1999/xlink" x="0px" y="0px"
	 viewBox="0 0 512 512" style="enable-background:new 0 0 512 512;" xml:space="preserve">
<g>
	<g>
		<path d="M463.219,447.361c-2.704-4.487-6.235-8.453-10.347-11.66l7.916-333.301c0-18.817-15.302-34.119-34.119-34.119
			s-34.119,15.311-34.119,34.324l7.907,333.088c-7.515,5.826-12.837,13.955-15.166,23.329c-2.764,11.055-1.049,22.51,4.819,32.277
			s15.183,16.667,26.238,19.422c3.455,0.853,6.935,1.279,10.398,1.279c7.634,0,15.166-2.081,21.879-6.099
			C468.781,493.789,475.331,467.534,463.219,447.361z M439.856,491.256c-5.868,3.523-12.769,4.546-19.371,2.892
			c-6.636-1.646-12.232-5.783-15.746-11.643c-3.523-5.86-4.546-12.743-2.9-19.371c1.655-6.636,5.783-12.223,11.643-15.737
			c2.627-1.587,4.205-4.453,4.137-7.515l-8.009-337.489c0-9.408,7.651-17.06,17.06-17.06c9.4,0,17.06,7.651,17.068,16.846
			l-8.018,337.703c-0.068,3.071,1.501,5.937,4.137,7.515c3.574,2.141,6.594,5.169,8.752,8.743
			C455.875,468.242,451.951,483.988,439.856,491.256z"/>
	</g>
</g>
<g>
	<g>
		<path d="M359.344,185.369L220.138,323.048c-2.516,2.491-3.233,6.286-1.8,9.528c2.414,5.433,3.625,11.208,3.617,17.179
			c0,23.517-19.132,42.649-42.649,42.649s-42.649-19.132-42.649-42.649s19.132-42.649,42.666-42.649
			c5.945-0.06,11.72,1.211,17.162,3.617c3.284,1.45,7.139,0.691,9.63-1.911L405.626,99.747l-12.343-11.78L197.687,292.938
			c-5.928-1.945-12.104-2.857-18.382-2.892c-32.925,0-59.708,26.792-59.708,59.708c0,32.916,26.784,59.708,59.708,59.708
			c32.925,0,59.708-26.792,59.708-59.691c0.017-6.346-0.972-12.547-2.926-18.51l135.248-133.764L359.344,185.369z"/>
	</g>
</g>
<g>
	<g>
		<path d="M336.211,383.098l75.403-183.126l-15.78-6.5l-77.621,188.517c-1.416,3.438-0.444,7.395,2.405,9.784
			c7.25,6.065,11.677,14.953,12.172,24.378c0.972,18.783-13.52,34.87-32.302,35.842c-9.178,0.486-17.844-2.619-24.608-8.717
			c-6.773-6.107-10.756-14.484-11.234-23.576c-0.981-18.791,13.511-34.87,32.302-35.842c3.395-0.179,6.355-2.346,7.549-5.527
			l105.94-282.762l-15.976-5.988L290.363,367.437c-11.421,1.859-21.802,7.515-29.658,16.232
			c-9.161,10.15-13.801,23.261-13.093,36.917c0.708,13.656,6.696,26.221,16.846,35.365c9.485,8.547,21.529,13.161,34.187,13.161
			c0.904,0,1.817-0.026,2.73-0.068c28.182-1.467,49.925-25.589,48.466-53.772C349.21,403.262,344.323,391.841,336.211,383.098z"/>
	</g>
</g>
<g>
	<g>
		<path d="M330.965,153.434l-172.907,71.309c-3.71,1.535-5.851,5.433-5.143,9.383c0.529,2.977,0.802,6.013,0.81,9.007
			c0.009,17.119-7.702,33.01-21.162,43.587c-23.994,18.851-58.881,14.663-77.732-9.332c-18.859-24.011-14.671-58.89,9.332-77.74
			c24.003-18.868,58.872-14.654,77.732,9.34c2.44,3.122,6.704,4.145,10.304,2.465L404.679,93.828l-7.199-15.456L150.833,193.276
			c-11.583-12.223-26.92-19.96-43.843-21.99c-19.201-2.312-38.162,3.011-53.371,14.953c-31.407,24.668-36.883,70.285-12.215,101.692
			c14.27,18.16,35.535,27.645,57.022,27.645c15.661,0,31.424-5.041,44.671-15.447c17.614-13.844,27.705-34.622,27.688-57.03
			c0-1.689-0.068-3.378-0.196-5.067l166.877-68.827L330.965,153.434z"/>
	</g>
</g>
<g>
	<g>
		<path d="M151.652,118.692c-6.082,24.728-25.231,43.877-49.959,49.959c-17.708,4.35-36.038,1.552-51.631-7.882
			c-15.592-9.434-26.579-24.378-30.929-42.077c-4.359-17.699-1.561-36.03,7.873-51.639C36.44,51.46,51.384,40.474,69.084,36.124
			c36.542-9.016,73.578,13.417,82.568,49.959c0.964,3.898,4.435,6.73,8.521,6.491l266.726-7.25l-0.469-17.051l-260.133,7.071
			c-6.38-19.201-19.243-35.339-36.746-45.933c-19.491-11.788-42.41-15.294-64.536-9.852S24.209,38.742,12.412,58.233
			C0.624,77.723-2.882,100.643,2.56,122.769c5.442,22.126,19.183,40.806,38.674,52.603c13.494,8.163,28.626,12.351,44.005,12.351
			c6.841,0,13.724-0.827,20.523-2.508c28.66-7.054,51.307-28.131,60.527-55.785l149.254,4.086l0.469-17.051l-155.839-4.265
			C156.104,111.953,152.607,114.785,151.652,118.692z"/>
	</g>
</g>
<g>
	<g>
		<path d="M508.521,39.834c-5.314-15.038-16.164-27.099-30.554-33.974c-14.398-6.875-30.613-7.728-45.634-2.414
			C417.295,8.76,405.234,19.61,398.35,34.008c-6.866,14.39-7.728,30.596-2.405,45.634c1.561,4.435,6.423,6.781,10.875,5.195
			c4.444-1.569,6.773-6.44,5.195-10.884c-3.787-10.73-3.182-22.314,1.723-32.592c4.913-10.278,13.537-18.032,24.276-21.828
			c10.739-3.796,22.322-3.19,32.592,1.723c10.287,4.905,18.04,13.528,21.836,24.267c7.83,22.169-3.821,46.59-25.99,54.429
			c-4.581,1.621-9.357,2.44-14.202,2.44c-7.591-0.256-14.85-1.962-21.324-5.689c-4.086-2.346-9.297-0.938-11.643,3.139
			c-2.363,4.086-0.955,9.297,3.13,11.652c9.033,5.203,19.328,7.958,29.76,7.958c6.73,0.256,13.528-1.143,19.96-3.412
			C503.173,105.053,519.499,70.874,508.521,39.834z"/>
	</g>
</g>
<g>
	<g>
		<path d="M119.597,102.391c0,18.817-15.302,34.119-34.119,34.119c-18.817,0-34.119-15.302-34.119-34.119h-17.06
			c0,28.225,22.954,51.179,51.179,51.179c28.216,0,51.179-22.962,51.179-51.179H119.597z"/>
	</g>
</g>
<g>
	<g>
		<path d="M119.597,243.133c0,11.754-9.57,21.324-21.324,21.324s-21.324-9.562-21.324-21.324h-17.06
			c0,21.162,17.222,38.384,38.384,38.384c21.162,0,38.384-17.222,38.384-38.384H119.597z"/>
	</g>
</g>
<g>
	<g>
		<path d="M187.835,349.755c0,4.708-3.83,8.53-8.53,8.53c-4.7,0-8.53-3.821-8.53-8.53h-17.06c0,14.108,11.481,25.589,25.589,25.589
			c14.108,0,25.589-11.481,25.589-25.589H187.835z"/>
	</g>
</g>
<g>
	<g>
		<path d="M281.663,417.993c0,9.408,7.651,17.06,17.06,17.06c9.4,0,17.06-7.651,17.06-17.06H281.663z"/>
	</g>
</g>
<g>
</g>
<g>
</g>
<g>
</g>
<g>
</g>
<g>
</g>
<g>
</g>
<g>
</g>
<g>
</g>
<g>
</g>
<g>
</g>
<g>
</g>
<g>
</g>
<g>
</g>
<g>
</g>
<g>
</g>
</svg>
