<?xml version="1.0" encoding="iso-8859-1"?>
<!-- Generator: Adobe Illustrator 19.0.0, SVG Export Plug-In . SVG Version: 6.00 Build 0)  -->
<svg version="1.1" id="Layer_1" xmlns="http://www.w3.org/2000/svg" xmlns:xlink="http://www.w3.org/1999/xlink" x="0px" y="0px"
	 viewBox="0 0 512 512" style="enable-background:new 0 0 512 512;" xml:space="preserve">
<g>
	<g>
		<g>
			<path d="M490.965,129.941l-3.968-4.971c-9.6-11.989-15.296-26.624-16.939-41.835c12.011-4.608,20.608-16.192,20.608-29.803
				C490.667,23.936,466.731,0,437.333,0H266.667c-29.397,0-53.333,23.936-53.333,53.333c0,13.611,8.597,25.195,20.608,29.803
				c-1.643,15.211-7.339,29.824-16.917,41.835l-3.989,4.971C199.467,146.923,192,168.213,192,189.931v268.736
				C192,488.064,215.936,512,245.333,512h213.333C488.064,512,512,488.064,512,458.667V189.931
				C512,168.192,504.533,146.901,490.965,129.941z M266.667,21.333h170.667c17.643,0,32,14.357,32,32
				c0,5.867-4.757,10.624-10.624,10.667c-0.021,0-0.043,0-0.043,0H245.333c-0.021,0-0.043,0-0.043,0
				c-5.867-0.043-10.624-4.8-10.624-10.667C234.667,35.691,249.024,21.333,266.667,21.333z M490.667,458.688
				c0,17.643-14.357,32-32,32H245.333c-17.643,0-32-14.357-32-32V189.952c0-16.896,5.824-33.472,16.363-46.656l3.989-4.971
				c12.16-15.211,19.712-33.728,21.76-52.992h193.109c2.069,19.264,9.6,37.781,21.781,52.992l3.968,4.971
				c10.56,13.205,16.363,29.76,16.363,46.656V458.688z"/>
			<path d="M458.667,213.333H245.333c-5.888,0-10.667,4.779-10.667,10.667v149.333c0,5.888,4.779,10.667,10.667,10.667h213.333
				c5.888,0,10.667-4.779,10.667-10.667V224C469.333,218.112,464.555,213.333,458.667,213.333z M448,362.667H256v-128h192V362.667z"
				/>
			<path d="M85.333,42.667C35.179,42.667,0,125.717,0,170.667c0,35.221,21.44,65.515,51.968,78.528l-9.301,220.139
				c0,23.531,19.136,42.667,42.667,42.667c23.531,0,42.667-19.136,42.688-43.115l-9.301-219.712
				c30.507-13.013,51.947-43.285,51.947-78.507C170.667,125.717,135.488,42.667,85.333,42.667z M85.333,490.667
				c-11.755,0-21.333-9.579-21.333-20.885l9.109-215.019c4.032,0.576,8.043,1.237,12.224,1.237c4.203,0,8.213-0.661,12.245-1.237
				l9.088,214.571C106.667,481.088,97.088,490.667,85.333,490.667z M85.333,234.667c-35.285,0-64-28.715-64-64
				c0-39.168,31.616-106.667,64-106.667c32.384,0,64,67.499,64,106.667C149.333,205.952,120.619,234.667,85.333,234.667z"/>
		</g>
	</g>
</g>
<g>
</g>
<g>
</g>
<g>
</g>
<g>
</g>
<g>
</g>
<g>
</g>
<g>
</g>
<g>
</g>
<g>
</g>
<g>
</g>
<g>
</g>
<g>
</g>
<g>
</g>
<g>
</g>
<g>
</g>
</svg>
