<?xml version="1.0" encoding="iso-8859-1"?>
<!-- Generator: Adobe Illustrator 19.0.0, SVG Export Plug-In . SVG Version: 6.00 Build 0)  -->
<svg version="1.1" id="Layer_1" xmlns="http://www.w3.org/2000/svg" xmlns:xlink="http://www.w3.org/1999/xlink" x="0px" y="0px"
	 viewBox="0 0 512 512" style="enable-background:new 0 0 512 512;" xml:space="preserve">
<g>
	<g>
		<g>
			<path d="M341.333,138.667C341.333,60.906,303.854,0,256,0s-85.333,60.906-85.333,138.667c0,45.906,13.688,88.635,36.625,114.292
				c9.25,10.333,14.063,23.573,13.563,37.281l-6.375,178.729c-0.396,11.375,3.729,22.146,11.625,30.333
				C234,507.49,244.625,512,256,512s22-4.51,29.896-12.698c7.896-8.188,12.021-18.958,11.625-30.333l-6.375-178.74
				c-0.5-13.698,4.313-26.938,13.563-37.271C327.646,227.302,341.333,184.573,341.333,138.667z M288.792,238.729
				c-12.938,14.479-19.667,33.042-18.979,52.26l6.375,178.75c0.208,5.521-1.813,10.76-5.646,14.75
				c-7.708,7.958-21.375,7.958-29.083,0c-3.833-3.99-5.854-9.229-5.646-14.75L242.188,291c0.688-19.229-6.042-37.792-18.979-52.271
				C203.667,216.885,192,179.479,192,138.667c0-63.604,29.313-117.333,64-117.333s64,53.729,64,117.333
				C320,179.479,308.333,216.885,288.792,238.729z"/>
			<path d="M288,128c-5.896,0-10.667,4.771-10.667,10.667c0,23.094-3.646,44.896-9.979,59.823
				c-2.313,5.427,0.208,11.688,5.646,13.99c1.354,0.583,2.771,0.854,4.167,0.854c4.146,0,8.083-2.438,9.813-6.49
				c7.542-17.729,11.688-41.938,11.688-68.177C298.667,132.771,293.896,128,288,128z"/>
		</g>
	</g>
</g>
<g>
</g>
<g>
</g>
<g>
</g>
<g>
</g>
<g>
</g>
<g>
</g>
<g>
</g>
<g>
</g>
<g>
</g>
<g>
</g>
<g>
</g>
<g>
</g>
<g>
</g>
<g>
</g>
<g>
</g>
</svg>
